<svg width="20" height="20" viewBox="0 0 20 20" fill="none" xmlns="http://www.w3.org/2000/svg">
<path d="M6.38867 5.13965V6.11181H4.93042C4.12505 6.11181 3.47217 6.7647 3.47217 7.57007V16.3196C3.47217 17.1249 4.12505 17.7778 4.93042 17.7778H11.7356C12.541 17.7778 13.1938 17.1249 13.1938 16.3196V14.8613H14.166V16.3196C14.166 17.6619 13.0779 18.75 11.7356 18.75H4.93042C3.58814 18.75 2.5 17.6619 2.5 16.3196V7.57007C2.5 6.22778 3.58814 5.13965 4.93042 5.13965H6.38867ZM14.166 2.22314H8.81909C8.01372 2.22314 7.36084 2.87602 7.36084 3.68139V12.4309C7.36084 13.2363 8.01372 13.8892 8.81909 13.8892H15.6243C16.4296 13.8892 17.0825 13.2363 17.0825 12.4309V5.13965H14.6521C14.3836 5.13965 14.166 4.92202 14.166 4.65356V2.22314ZM18.0547 4.68076V12.4309C18.0547 13.7732 16.9666 14.8613 15.6243 14.8613H8.81909C7.47681 14.8613 6.38867 13.7732 6.38867 12.4309V3.68139C6.38867 2.33911 7.47681 1.25097 8.81909 1.25097H14.6249C14.754 1.24279 14.8883 1.28582 14.9958 1.39335L17.9123 4.30985C18.0198 4.41738 18.0629 4.55171 18.0547 4.68076ZM15.1382 4.16748H16.3951L15.1382 2.91057V4.16748ZM9.79126 10.9727C9.5228 10.9727 9.30518 10.755 9.30518 10.4866C9.30518 10.2181 9.5228 10.0005 9.79126 10.0005H11.7356C12.0041 10.0005 12.2217 10.2181 12.2217 10.4866C12.2217 10.755 12.0041 10.9727 11.7356 10.9727H9.79126ZM9.79126 9.02832C9.5228 9.02832 9.30518 8.81069 9.30518 8.54223C9.30518 8.27378 9.5228 8.05615 9.79126 8.05615H14.6521C14.9206 8.05615 15.1382 8.27378 15.1382 8.54223C15.1382 8.81069 14.9206 9.02832 14.6521 9.02832H9.79126ZM9.79126 7.08398C9.5228 7.08398 9.30518 6.86636 9.30518 6.5979C9.30518 6.32944 9.5228 6.11181 9.79126 6.11181H14.6521C14.9206 6.11181 15.1382 6.32944 15.1382 6.5979C15.1382 6.86636 14.9206 7.08398 14.6521 7.08398H9.79126Z" fill="#A3A3A3"/>
</svg>
