<svg width="20" height="20" viewBox="0 0 20 20" fill="none" xmlns="http://www.w3.org/2000/svg">
<path d="M12.6667 18.6665H7.33333C6.44928 18.6665 5.60143 18.3153 4.97631 17.6902C4.35119 17.0651 4 16.2172 4 15.3332V7.33317C4 7.15636 4.07024 6.98679 4.19526 6.86177C4.32029 6.73674 4.48986 6.6665 4.66667 6.6665C4.84348 6.6665 5.01305 6.73674 5.13807 6.86177C5.2631 6.98679 5.33333 7.15636 5.33333 7.33317V15.3332C5.33333 15.8636 5.54405 16.3723 5.91912 16.7474C6.29419 17.1225 6.8029 17.3332 7.33333 17.3332H12.6667C13.1971 17.3332 13.7058 17.1225 14.0809 16.7474C14.456 16.3723 14.6667 15.8636 14.6667 15.3332V7.33317C14.6667 7.15636 14.7369 6.98679 14.8619 6.86177C14.987 6.73674 15.1565 6.6665 15.3333 6.6665C15.5101 6.6665 15.6797 6.73674 15.8047 6.86177C15.9298 6.98679 16 7.15636 16 7.33317V15.3332C16 16.2172 15.6488 17.0651 15.0237 17.6902C14.3986 18.3153 13.5507 18.6665 12.6667 18.6665Z" fill="#FF6363"/>
<path d="M16.6666 5.33333H3.33329C3.15648 5.33333 2.98691 5.2631 2.86189 5.13807C2.73686 5.01305 2.66663 4.84348 2.66663 4.66667C2.66663 4.48986 2.73686 4.32029 2.86189 4.19526C2.98691 4.07024 3.15648 4 3.33329 4H16.6666C16.8434 4 17.013 4.07024 17.138 4.19526C17.2631 4.32029 17.3333 4.48986 17.3333 4.66667C17.3333 4.84348 17.2631 5.01305 17.138 5.13807C17.013 5.2631 16.8434 5.33333 16.6666 5.33333Z" fill="#FF6363"/>
<path d="M12.6666 5.33325H7.33329C7.15648 5.33325 6.98691 5.26301 6.86189 5.13799C6.73686 5.01297 6.66663 4.8434 6.66663 4.66659V3.33325C6.66663 2.80282 6.87734 2.29411 7.25241 1.91904C7.62749 1.54397 8.13619 1.33325 8.66663 1.33325H11.3333C11.8637 1.33325 12.3724 1.54397 12.7475 1.91904C13.1226 2.29411 13.3333 2.80282 13.3333 3.33325V4.66659C13.3333 4.8434 13.2631 5.01297 13.138 5.13799C13.013 5.26301 12.8434 5.33325 12.6666 5.33325ZM7.99996 3.99992H12V3.33325C12 3.15644 11.9297 2.98687 11.8047 2.86185C11.6797 2.73682 11.5101 2.66659 11.3333 2.66659H8.66663C8.48982 2.66659 8.32025 2.73682 8.19522 2.86185C8.0702 2.98687 7.99996 3.15644 7.99996 3.33325V3.99992Z" fill="#FF6363"/>
<path d="M8.66667 14.6665C8.48986 14.6665 8.32029 14.5963 8.19526 14.4712C8.07024 14.3462 8 14.1766 8 13.9998V9.33317C8 9.15636 8.07024 8.98679 8.19526 8.86177C8.32029 8.73674 8.48986 8.6665 8.66667 8.6665C8.84348 8.6665 9.01305 8.73674 9.13807 8.86177C9.2631 8.98679 9.33333 9.15636 9.33333 9.33317V13.9998C9.33333 14.1766 9.2631 14.3462 9.13807 14.4712C9.01305 14.5963 8.84348 14.6665 8.66667 14.6665Z" fill="#FF6363"/>
<path d="M11.3333 14.6665C11.1565 14.6665 10.9869 14.5963 10.8619 14.4712C10.7369 14.3462 10.6666 14.1766 10.6666 13.9998V9.33317C10.6666 9.15636 10.7369 8.98679 10.8619 8.86177C10.9869 8.73674 11.1565 8.6665 11.3333 8.6665C11.5101 8.6665 11.6797 8.73674 11.8047 8.86177C11.9297 8.98679 12 9.15636 12 9.33317V13.9998C12 14.1766 11.9297 14.3462 11.8047 14.4712C11.6797 14.5963 11.5101 14.6665 11.3333 14.6665Z" fill="#FF6363"/>
</svg>
