<svg width="20" height="20" viewBox="0 0 20 20" fill="none" xmlns="http://www.w3.org/2000/svg">
<path d="M9.16663 3.33325H3.33329C2.89127 3.33325 2.46734 3.50885 2.15478 3.82141C1.84222 4.13397 1.66663 4.55789 1.66663 4.99992V16.6666C1.66663 17.1086 1.84222 17.5325 2.15478 17.8451C2.46734 18.1577 2.89127 18.3333 3.33329 18.3333H15C15.442 18.3333 15.8659 18.1577 16.1785 17.8451C16.491 17.5325 16.6666 17.1086 16.6666 16.6666V10.8333" stroke="#5A7FFF" stroke-linecap="round" stroke-linejoin="round"/>
<path d="M15.4166 2.08344C15.7481 1.75192 16.1978 1.56567 16.6666 1.56567C17.1355 1.56567 17.5851 1.75192 17.9166 2.08344C18.2481 2.41496 18.4344 2.8646 18.4344 3.33344C18.4344 3.80228 18.2481 4.25192 17.9166 4.58344L9.99996 12.5001L6.66663 13.3334L7.49996 10.0001L15.4166 2.08344Z" stroke="#5A7FFF" stroke-linecap="round" stroke-linejoin="round"/>
</svg>
