<svg width="19" height="24" viewBox="0 0 19 24" fill="none" xmlns="http://www.w3.org/2000/svg">
<path d="M15.2 4.02133H13.8213V3.488C13.8213 3.27583 13.737 3.07234 13.587 2.92231C13.437 2.77229 13.2335 2.688 13.0213 2.688H11.9227C11.8181 2.00584 11.4727 1.38367 10.9491 0.934161C10.4254 0.48465 9.75812 0.237518 9.068 0.237518C8.37787 0.237518 7.71056 0.48465 7.18691 0.934161C6.66326 1.38367 6.31788 2.00584 6.21333 2.688H5.112C4.89983 2.688 4.69634 2.77229 4.54631 2.92231C4.39629 3.07234 4.312 3.27583 4.312 3.488V4.02133H2.93333C2.15536 4.02133 1.40926 4.33038 0.859153 4.88049C0.309047 5.43059 0 6.1767 0 6.95467V20.8213C0 21.5993 0.309047 22.3454 0.859153 22.8955C1.40926 23.4456 2.15536 23.7547 2.93333 23.7547H15.2C15.978 23.7547 16.7241 23.4456 17.2742 22.8955C17.8243 22.3454 18.1333 21.5993 18.1333 20.8213V6.95467C18.1333 6.1767 17.8243 5.43059 17.2742 4.88049C16.7241 4.33038 15.978 4.02133 15.2 4.02133ZM5.912 4.288H6.97867C7.19084 4.288 7.39432 4.20371 7.54435 4.05369C7.69438 3.90366 7.77867 3.70017 7.77867 3.488V3.13333C7.77867 2.79138 7.91451 2.46343 8.1563 2.22164C8.3981 1.97984 8.72605 1.844 9.068 1.844C9.40995 1.844 9.7379 1.97984 9.9797 2.22164C10.2215 2.46343 10.3573 2.79138 10.3573 3.13333V3.49067C10.3573 3.70284 10.4416 3.90632 10.5916 4.05635C10.7417 4.20638 10.9452 4.29067 11.1573 4.29067H12.224V6.112H5.912V4.288ZM13.048 13.224L8.44533 17.304C8.29811 17.4338 8.10829 17.505 7.912 17.504H7.86667C7.76164 17.498 7.65883 17.4714 7.56411 17.4256C7.46939 17.3799 7.38463 17.3159 7.31467 17.2373L5.01333 14.6293C4.87188 14.4702 4.79944 14.2614 4.81195 14.0489C4.81814 13.9436 4.84499 13.8406 4.89099 13.7458C4.93698 13.6509 5.00121 13.566 5.08 13.496C5.15879 13.426 5.25061 13.3721 5.35021 13.3376C5.44981 13.303 5.55523 13.2884 5.66047 13.2946C5.87301 13.3071 6.07188 13.4035 6.21333 13.5627L7.984 15.5707L12 12.0267C12.1588 11.8852 12.3672 11.8126 12.5795 11.8249C12.7918 11.8371 12.9906 11.9332 13.132 12.092C13.2734 12.2508 13.346 12.4592 13.3338 12.6715C13.3215 12.8838 13.2254 13.0826 13.0667 13.224H13.048Z" fill="#550DC9"/>
</svg>
